<svg version="1.1" id="Layer_1" xmlns="http://www.w3.org/2000/svg" xmlns:xlink="http://www.w3.org/1999/xlink" x="0px" y="0px"
	 width="100%" viewBox="0 0 1200 1200" enable-background="new 0 0 1200 1200" xml:space="preserve">
<path fill="#000000" opacity="1.000000" stroke="none" 
	d="
M525.000000,1201.000000 
	C350.000000,1201.000000 175.500000,1201.000000 1.000000,1201.000000 
	C1.000000,801.000000 1.000000,401.000000 1.000000,1.000000 
	C401.000000,1.000000 801.000000,1.000000 1201.000000,1.000000 
	C1201.000000,401.000000 1201.000000,801.000000 1201.000000,1201.000000 
	C975.833313,1201.000000 750.666687,1201.000000 525.000000,1201.000000 
M783.272400,655.331482 
	C783.152527,655.198425 783.032593,655.065369 782.970337,654.137817 
	C783.109314,652.240906 783.248291,650.343994 783.384949,648.479187 
	C776.312622,647.631592 775.234070,648.430969 773.890503,654.649597 
	C771.106689,667.534546 768.171082,680.386780 765.409241,693.276367 
	C763.558472,701.914246 761.899109,710.593140 760.155273,719.247925 
	C767.083313,720.633301 768.576782,719.746277 770.030029,713.598450 
	C771.014099,709.435852 772.321289,705.294983 772.744934,701.070251 
	C773.149780,697.032776 775.252380,696.834106 778.448486,696.936096 
	C782.023254,697.050110 785.757324,697.143799 789.177368,696.278748 
	C805.075073,692.257507 814.047302,672.244690 810.327454,656.876465 
	C809.086243,651.748169 806.119751,648.320190 800.075195,647.753235 
	C792.706726,647.062195 788.060547,650.921143 783.272400,655.331482 
M732.285950,654.319885 
	C732.161499,654.190979 732.037109,654.062073 731.969543,653.180969 
	C731.969543,651.575012 731.969543,649.969055 731.969543,648.420288 
	C724.944397,647.686157 723.676758,648.380249 722.395874,654.320374 
	C718.538574,672.208862 714.786621,690.120300 711.049316,708.034424 
	C710.264587,711.795715 709.717712,715.606750 709.060425,719.399658 
	C716.116394,720.376404 717.549377,719.537781 718.880859,713.748535 
	C720.164429,708.167603 721.263062,702.544189 722.499939,696.668823 
	C727.774292,696.668823 732.888428,697.570068 737.552063,696.502991 
	C752.681458,693.041382 764.267456,670.297363 758.804810,655.756348 
	C756.405212,649.368958 751.657898,646.212280 744.957397,648.083984 
	C740.582581,649.305969 736.739990,652.433105 732.285950,654.319885 
M613.430420,508.115936 
	C608.619019,515.738770 610.850708,528.322144 617.787170,534.473938 
	C628.196106,543.705505 639.945862,545.879822 652.889160,542.474915 
	C668.294983,538.421997 674.993530,529.425720 674.996460,513.815430 
	C675.001282,487.827271 674.997559,461.839142 674.997437,435.850983 
	C674.997437,433.738953 674.997437,431.626923 674.997437,429.632324 
	C673.776001,429.363220 673.279724,429.117096 672.819580,429.172272 
	C656.923279,431.077606 641.042480,433.117981 625.133728,434.911469 
	C608.879700,436.743896 592.601318,438.362732 576.327759,440.017761 
	C572.659302,440.390900 570.849670,441.736603 570.908997,445.936432 
	C571.139404,462.259033 570.829834,478.589722 571.104614,494.910950 
	C571.184753,499.671112 569.928650,501.504059 565.006592,501.068665 
	C556.690918,500.333069 548.825745,501.961700 541.953430,507.028961 
	C528.190247,517.177246 527.378540,532.625732 538.732971,542.664856 
	C550.699463,553.245056 564.923035,554.507385 579.456360,548.089233 
	C589.475769,543.664490 595.446228,536.287231 595.084534,524.506165 
	C594.706360,512.190125 595.000000,499.853363 595.000000,487.525635 
	C595.000000,483.234894 595.000000,478.944122 595.000000,473.989990 
	C613.469055,471.881744 631.376587,469.837585 649.544373,467.763733 
	C649.544373,476.815399 649.544373,484.836975 649.544373,492.965637 
	C635.207520,492.588409 622.176575,494.370605 613.430420,508.115936 
M597.997925,381.494720 
	C597.997925,376.871063 597.997925,372.247437 597.997925,367.302704 
	C572.628845,370.290771 547.959839,373.196411 522.702759,376.171295 
	C522.702759,395.888947 522.702759,414.759552 522.702759,433.824921 
	C512.146912,432.499359 502.828918,434.228668 494.827148,440.155609 
	C482.651794,449.173950 480.799591,466.006104 493.453491,476.547546 
	C504.109772,485.424896 516.754211,486.083038 529.613586,481.909393 
	C538.422058,479.050476 547.695984,470.125946 547.171021,457.543457 
	C546.477173,440.911957 547.000610,424.229706 547.000854,407.569244 
	C547.000854,405.613098 547.000854,403.656921 547.000854,401.583618 
	C549.988708,400.983978 552.374573,400.319519 554.804382,400.048615 
	C567.613159,398.620544 580.435181,397.312134 593.247437,395.914032 
	C596.416199,395.568207 598.437805,394.215912 598.045410,390.475067 
	C597.768860,387.838623 597.995789,385.149384 597.997925,381.494720 
M390.562134,689.885254 
	C390.160309,691.735901 389.758484,693.586609 389.355682,695.441772 
	C397.992004,696.703308 398.255676,696.229553 400.042969,687.809570 
	C403.237488,672.760193 406.805176,657.790100 410.416809,641.907654 
	C411.185974,643.719116 411.769348,644.582153 411.915680,645.513855 
	C414.295715,660.667236 416.553741,675.840210 419.047821,690.974426 
	C419.337067,692.729492 420.535156,695.268738 421.888824,695.722229 
	C424.816254,696.702942 427.516113,695.871033 429.281891,692.516296 
	C434.830261,681.975220 440.650024,671.575989 446.427185,661.156494 
	C449.931641,654.835999 453.551666,648.579651 457.119751,642.294495 
	C457.318237,642.375061 457.516754,642.455627 457.715240,642.536194 
	C454.880585,660.135986 452.045898,677.735718 449.213989,695.318176 
	C457.605408,696.859497 457.840118,696.717529 459.103546,689.325623 
	C461.715393,674.044861 464.358551,658.769287 466.891632,643.475464 
	C467.762543,638.217407 468.343933,632.911377 469.096588,627.338196 
	C466.685120,627.187134 465.199921,627.193298 463.745422,626.984985 
	C458.653992,626.256104 455.196716,627.714172 452.643219,632.728516 
	C446.487976,644.815552 439.739258,656.600952 433.198730,668.490845 
	C430.954956,672.569702 428.618591,676.597656 425.699249,681.753052 
	C422.852814,662.772156 420.221405,645.225098 417.488525,627.001648 
	C415.081512,627.001648 412.771027,627.246338 410.532623,626.948730 
	C406.369263,626.395142 404.527191,628.154724 403.918243,632.182068 
	C403.352875,635.921204 402.236359,639.575928 401.385040,643.273071 
	C397.867065,658.551086 394.357666,673.831055 390.562134,689.885254 
M716.999023,545.500000 
	C716.996338,531.512024 716.907166,517.523132 717.052307,503.536713 
	C717.088318,500.065277 715.932983,498.798401 712.457336,498.951721 
	C707.471313,499.171661 702.460449,499.180786 697.475403,498.950104 
	C693.920349,498.785614 692.907715,500.209564 692.949219,503.601898 
	C693.095886,515.589783 693.002258,527.580566 693.000122,539.570251 
	C692.999573,542.839050 693.000061,546.107910 693.000061,549.493225 
	C682.175049,548.100098 672.902527,550.013489 664.419434,555.785828 
	C651.726074,564.423096 651.561768,584.391357 664.211365,593.062378 
	C676.857910,601.731262 690.297913,602.593872 703.588623,595.489563 
	C711.696045,591.155884 717.488281,584.396423 717.074585,573.973389 
	C716.711670,564.828979 716.998962,555.658813 716.999023,545.500000 
M661.501587,670.997375 
	C657.065247,679.036072 652.628906,687.074768 648.111938,695.259583 
	C656.725220,696.985229 657.579895,696.550171 661.116882,689.723022 
	C663.247559,685.610291 665.476074,681.542786 667.829529,677.554749 
	C668.428772,676.539368 669.655090,675.223816 670.620972,675.200684 
	C678.552673,675.010681 686.490845,675.093445 694.448547,675.093445 
	C695.335571,680.256348 696.111877,684.790833 696.894165,689.324402 
	C698.157227,696.644348 699.415833,697.386047 706.785889,694.980713 
	C703.055237,672.134827 699.319641,649.258301 695.573730,626.318604 
	C690.923645,626.039673 686.742798,624.685913 683.994507,629.869019 
	C676.790771,643.454895 669.270691,656.872986 661.501587,670.997375 
M515.517090,667.967163 
	C516.730042,661.907166 517.942993,655.847168 519.151917,649.807434 
	C511.164978,648.219543 510.452576,648.630798 509.131042,655.186951 
	C508.674164,657.453735 508.350983,659.747437 507.966217,662.028748 
	C506.049988,673.389404 500.607086,682.519226 490.648804,688.550537 
	C489.316589,689.357361 486.467255,689.455200 485.473602,688.576843 
	C484.191345,687.443542 483.269928,684.850159 483.581848,683.138611 
	C485.386047,673.238464 487.630951,663.419250 489.636536,653.554260 
	C489.908142,652.218323 489.673920,650.779541 489.673920,648.517517 
	C486.256042,650.056335 482.108002,646.727783 480.984863,652.223999 
	C478.704834,663.381775 475.615265,674.443359 474.337219,685.712219 
	C473.480408,693.266785 477.955841,698.634766 486.516541,697.003601 
	C492.172394,695.925781 497.376648,692.477844 502.710999,690.122864 
	C502.933014,691.225830 503.055969,693.410095 503.886963,695.279602 
	C504.283264,696.171204 506.264221,697.172241 507.109863,696.886780 
	C509.085236,696.219910 512.517334,694.460083 512.373108,693.745605 
	C510.616638,685.042725 513.896851,677.018127 515.517090,667.967163 
M590.481689,691.982361 
	C596.718018,700.391907 614.670837,698.130493 620.909546,690.796265 
	C619.863342,688.942444 618.764282,686.994934 617.475159,684.710754 
	C615.502136,685.906494 614.041443,686.968262 612.439209,687.733643 
	C603.255066,692.120667 597.784729,689.670349 595.398132,681.867981 
	C593.625793,676.073792 594.721863,669.644470 598.270264,664.222412 
	C603.713501,655.904907 609.716125,652.210876 619.829163,658.421448 
	C620.470947,658.815613 621.123718,659.192017 622.258606,659.866028 
	C623.662842,657.241943 624.863464,654.998230 625.998657,652.876770 
	C617.588135,644.975037 602.713501,646.778503 595.070190,654.134644 
	C585.588684,663.259827 581.547729,682.233154 590.481689,691.982361 
M540.397949,665.907043 
	C539.746521,663.368164 537.765869,659.585083 538.728333,658.556763 
	C540.570557,656.588562 544.055054,655.465820 546.916626,655.341675 
	C549.675964,655.221924 552.509277,656.804199 555.281189,657.630127 
	C558.055664,651.123596 557.648560,648.693237 553.026611,648.317688 
	C547.888428,647.900330 542.422729,647.889771 537.502441,649.206909 
	C528.579895,651.595337 525.728943,664.015381 532.203552,670.630859 
	C535.210876,673.703613 538.778503,676.235229 541.725037,679.358459 
	C545.243652,683.088013 544.169983,688.035767 539.204346,688.786438 
	C534.514221,689.495544 529.518799,688.185486 523.975525,687.704346 
	C520.662476,693.081909 521.532837,695.504456 529.053040,696.771179 
	C532.550232,697.360291 536.225281,697.137085 539.802429,696.950562 
	C545.262268,696.665833 549.475708,693.789551 551.380066,688.861511 
	C553.468750,683.456238 553.482117,677.798889 548.769287,673.310547 
	C546.253784,670.914856 543.552673,668.714111 540.397949,665.907043 
M571.181519,688.765076 
	C573.965210,675.684448 576.748901,662.603821 579.647034,648.985596 
	C575.351196,649.460083 571.261902,647.239197 570.178406,652.163635 
	C567.035645,666.447937 564.125549,680.783386 561.128967,695.075378 
	C568.825928,697.224792 570.052429,696.515381 571.181519,688.765076 
M613.069031,413.100281 
	C614.162476,414.334503 615.047668,416.254395 616.391968,416.662506 
	C619.336914,417.556580 622.622009,418.391235 625.569763,417.943665 
	C629.157043,417.399048 631.590271,414.743896 631.983643,410.724976 
	C632.423950,406.226837 631.466187,401.760681 627.095154,400.367371 
	C623.735474,399.296417 618.945129,399.336456 616.051636,401.032776 
	C612.409668,403.167816 610.738708,407.675781 613.069031,413.100281 
M569.626892,562.944885 
	C565.274719,567.614746 564.609436,571.737793 567.989685,576.678955 
	C570.247742,579.979736 573.546814,581.733765 577.771545,580.594971 
	C584.197998,578.862671 587.216553,573.469849 585.178650,567.410706 
	C583.060791,561.113831 577.508301,559.262085 569.626892,562.944885 
M576.180725,637.499817 
	C578.629456,636.608215 582.031860,636.383850 583.255371,634.635010 
	C584.449341,632.928406 584.409485,628.560303 583.096313,627.380188 
	C581.649292,626.079712 577.416016,626.057495 575.669983,627.286926 
	C571.906860,629.936768 572.326477,633.720032 576.180725,637.499817 
M697.168091,402.982727 
	C700.187561,402.734344 702.459961,401.795349 701.458801,398.074066 
	C700.607849,394.911011 698.084473,394.976074 695.496277,394.974121 
	C692.904663,394.972198 690.490723,394.950836 689.510193,398.072052 
	C688.441162,401.475067 690.375793,402.897949 697.168091,402.982727 
M504.008026,572.951294 
	C506.527557,572.528931 509.253204,572.524231 511.447113,571.441895 
	C512.148682,571.095764 511.441925,567.894897 511.379578,566.000244 
	C507.960297,566.154358 503.878662,565.209229 501.302002,566.761719 
	C498.547394,568.421448 500.578979,571.350281 504.008026,572.951294 
M689.645325,393.569946 
	C689.734131,391.268005 690.581421,388.590576 689.683533,386.777191 
	C688.895996,385.186554 686.149780,383.737244 684.270447,383.739532 
	C682.230530,383.741974 680.777771,391.167511 682.404175,393.500671 
	C684.214172,396.097260 686.639648,396.353882 689.645325,393.569946 
M512.928650,573.776306 
	C512.651611,576.338257 511.850952,578.981934 512.234436,581.440857 
	C512.681580,584.307678 514.977844,585.605469 517.770813,583.992981 
	C521.771667,581.683105 520.196472,577.711243 519.518494,574.667236 
	C518.841125,571.626099 516.043457,571.673767 512.928650,573.776306 
M684.088196,414.391113 
	C685.923157,413.811615 689.135498,413.526123 689.333740,412.597260 
	C689.918945,409.855438 689.957581,406.613098 688.976074,404.036591 
	C688.119263,401.787384 682.394714,402.948364 682.280212,405.383087 
	C682.148193,408.188416 683.020203,411.040955 684.088196,414.391113 
M525.521057,565.003967 
	C522.853882,565.027832 520.005554,564.639160 520.016479,568.758789 
	C520.027588,572.942200 522.919434,572.889282 525.804871,572.991821 
	C528.825562,573.099182 531.741272,572.758362 531.840088,568.903809 
	C531.932922,565.282654 529.328125,564.751282 525.521057,565.003967 
M513.975281,564.707092 
	C519.888184,565.067078 520.691956,564.292725 519.827698,557.307312 
	C519.638794,555.780945 517.497864,554.496033 516.255981,553.099915 
	C514.853455,554.418701 512.546631,555.569214 512.262634,557.096008 
	C511.847992,559.324768 512.886719,561.823853 513.975281,564.707092 
M674.854614,402.982239 
	C677.172241,402.269989 680.650879,402.251862 681.574829,400.706421 
	C683.748352,397.070709 681.154480,394.574829 675.612000,395.147705 
	C673.710999,395.344208 671.975830,397.144287 670.164917,398.211761 
	C671.447021,399.791565 672.729065,401.371368 674.854614,402.982239 
z"/>
<path fill="#891204" opacity="1.000000" stroke="none" 
	d="
M613.639648,507.798035 
	C622.176575,494.370605 635.207520,492.588409 649.544373,492.965637 
	C649.544373,484.836975 649.544373,476.815399 649.544373,467.763733 
	C631.376587,469.837585 613.469055,471.881744 595.000000,473.989990 
	C595.000000,478.944122 595.000000,483.234894 595.000000,487.525635 
	C595.000000,499.853363 594.706360,512.190125 595.084534,524.506165 
	C595.446228,536.287231 589.475769,543.664490 579.456360,548.089233 
	C564.923035,554.507385 550.699463,553.245056 538.732971,542.664856 
	C527.378540,532.625732 528.190247,517.177246 541.953430,507.028961 
	C548.825745,501.961700 556.690918,500.333069 565.006592,501.068665 
	C569.928650,501.504059 571.184753,499.671112 571.104614,494.910950 
	C570.829834,478.589722 571.139404,462.259033 570.908997,445.936432 
	C570.849670,441.736603 572.659302,440.390900 576.327759,440.017761 
	C592.601318,438.362732 608.879700,436.743896 625.133728,434.911469 
	C641.042480,433.117981 656.923279,431.077606 672.819580,429.172272 
	C673.279724,429.117096 673.776001,429.363220 674.997437,429.632324 
	C674.997437,431.626923 674.997437,433.738953 674.997437,435.850983 
	C674.997559,461.839142 675.001282,487.827271 674.996460,513.815430 
	C674.993530,529.425720 668.294983,538.421997 652.889160,542.474915 
	C639.945862,545.879822 628.196106,543.705505 617.787170,534.473938 
	C610.850708,528.322144 608.619019,515.738770 613.639648,507.798035 
M587.000000,484.500977 
	C587.000000,478.552277 587.000000,472.603577 587.000000,466.334320 
	C611.192810,463.548370 634.726990,460.838287 658.505554,458.100037 
	C658.505554,473.944946 658.505554,489.267761 658.505554,505.141602 
	C656.210144,504.442413 654.477783,503.983215 652.792725,503.389709 
	C645.315979,500.756165 637.870178,500.987671 630.635254,504.044495 
	C624.909668,506.463623 620.226135,510.436249 619.192810,516.803101 
	C618.258301,522.561035 621.513855,527.132324 626.037170,530.334534 
	C633.392883,535.541748 641.825134,536.451477 650.286499,534.204285 
	C662.022095,531.087585 665.999634,525.406921 665.999634,513.454529 
	C665.999695,490.463165 665.885010,467.470764 666.095032,444.481323 
	C666.135803,440.023010 664.792419,438.453156 660.423218,439.001770 
	C651.408386,440.133759 642.366272,441.046844 633.344482,442.126160 
	C617.278931,444.048187 601.250610,446.375305 585.141113,447.782837 
	C579.873840,448.243042 578.858887,450.013092 578.916443,454.705658 
	C579.129211,472.029846 579.000122,489.358276 578.999634,506.685089 
	C578.999573,508.594452 578.999695,510.503815 578.999695,513.172668 
	C568.987122,508.707764 559.735046,507.464752 550.433044,512.037781 
	C544.825256,514.794678 540.452026,518.564026 540.007812,525.382935 
	C539.553467,532.358337 543.518738,537.050537 549.209106,539.351257 
	C554.556458,541.513367 560.760681,543.178162 566.384888,542.695618 
	C578.084778,541.691711 587.730713,534.986511 587.107910,520.982483 
	C586.582825,509.176971 586.999939,497.329529 587.000000,484.500977 
z"/>
<path fill="#891204" opacity="1.000000" stroke="none" 
	d="
M597.997925,381.989197 
	C597.995789,385.149384 597.768860,387.838623 598.045410,390.475067 
	C598.437805,394.215912 596.416199,395.568207 593.247437,395.914032 
	C580.435181,397.312134 567.613159,398.620544 554.804382,400.048615 
	C552.374573,400.319519 549.988708,400.983978 547.000854,401.583618 
	C547.000854,403.656921 547.000854,405.613098 547.000854,407.569244 
	C547.000610,424.229706 546.477173,440.911957 547.171021,457.543457 
	C547.695984,470.125946 538.422058,479.050476 529.613586,481.909393 
	C516.754211,486.083038 504.109772,485.424896 493.453491,476.547546 
	C480.799591,466.006104 482.651794,449.173950 494.827148,440.155609 
	C502.828918,434.228668 512.146912,432.499359 522.702759,433.824921 
	C522.702759,414.759552 522.702759,395.888947 522.702759,376.171295 
	C547.959839,373.196411 572.628845,370.290771 597.997925,367.302704 
	C597.997925,372.247437 597.997925,376.871063 597.997925,381.989197 
M497.986603,468.478912 
	C505.619934,475.920135 514.879822,477.830139 524.568420,474.477783 
	C533.430542,471.411438 539.307373,467.111786 539.085388,454.678925 
	C538.755432,436.200104 538.990784,417.711029 539.015320,399.226349 
	C539.017883,397.294617 539.221069,395.363159 539.331299,393.428009 
	C556.073120,391.465546 572.263855,389.567657 588.612671,387.651276 
	C588.612671,383.990662 588.612671,380.765045 588.612671,377.190765 
	C584.138489,377.534485 580.042725,377.700531 575.985718,378.188293 
	C563.208435,379.724365 550.475281,381.734039 537.662048,382.809998 
	C532.836304,383.215240 531.892578,384.925018 531.934265,389.181763 
	C532.099182,405.999573 532.000610,422.819916 531.999817,439.639343 
	C531.999756,441.390991 531.999817,443.142639 531.999817,445.421936 
	C529.442932,444.773926 527.605469,444.566132 525.990173,443.854187 
	C518.987671,440.767761 511.978210,441.515289 505.197784,444.138885 
	C494.569763,448.251190 489.328094,460.129944 497.986603,468.478912 
z"/>
<path fill="#891204" opacity="1.000000" stroke="none" 
	d="
M390.703644,689.497803 
	C394.357666,673.831055 397.867065,658.551086 401.385040,643.273071 
	C402.236359,639.575928 403.352875,635.921204 403.918243,632.182068 
	C404.527191,628.154724 406.369263,626.395142 410.532623,626.948730 
	C412.771027,627.246338 415.081512,627.001648 417.488525,627.001648 
	C420.221405,645.225098 422.852814,662.772156 425.699249,681.753052 
	C428.618591,676.597656 430.954956,672.569702 433.198730,668.490845 
	C439.739258,656.600952 446.487976,644.815552 452.643219,632.728516 
	C455.196716,627.714172 458.653992,626.256104 463.745422,626.984985 
	C465.199921,627.193298 466.685120,627.187134 469.096588,627.338196 
	C468.343933,632.911377 467.762543,638.217407 466.891632,643.475464 
	C464.358551,658.769287 461.715393,674.044861 459.103546,689.325623 
	C457.840118,696.717529 457.605408,696.859497 449.213989,695.318176 
	C452.045898,677.735718 454.880585,660.135986 457.715240,642.536194 
	C457.516754,642.455627 457.318237,642.375061 457.119751,642.294495 
	C453.551666,648.579651 449.931641,654.835999 446.427185,661.156494 
	C440.650024,671.575989 434.830261,681.975220 429.281891,692.516296 
	C427.516113,695.871033 424.816254,696.702942 421.888824,695.722229 
	C420.535156,695.268738 419.337067,692.729492 419.047821,690.974426 
	C416.553741,675.840210 414.295715,660.667236 411.915680,645.513855 
	C411.769348,644.582153 411.185974,643.719116 410.416809,641.907654 
	C406.805176,657.790100 403.237488,672.760193 400.042969,687.809570 
	C398.255676,696.229553 397.992004,696.703308 389.355682,695.441772 
	C389.758484,693.586609 390.160309,691.735901 390.703644,689.497803 
z"/>
<path fill="#891204" opacity="1.000000" stroke="none" 
	d="
M716.999023,546.000000 
	C716.998962,555.658813 716.711670,564.828979 717.074585,573.973389 
	C717.488281,584.396423 711.696045,591.155884 703.588623,595.489563 
	C690.297913,602.593872 676.857910,601.731262 664.211365,593.062378 
	C651.561768,584.391357 651.726074,564.423096 664.419434,555.785828 
	C672.902527,550.013489 682.175049,548.100098 693.000061,549.493225 
	C693.000061,546.107910 692.999573,542.839050 693.000122,539.570251 
	C693.002258,527.580566 693.095886,515.589783 692.949219,503.601898 
	C692.907715,500.209564 693.920349,498.785614 697.475403,498.950104 
	C702.460449,499.180786 707.471313,499.171661 712.457336,498.951721 
	C715.932983,498.798401 717.088318,500.065277 717.052307,503.536713 
	C716.907166,517.523132 716.996338,531.512024 716.999023,546.000000 
M707.074768,507.016205 
	C705.502930,507.149933 703.931152,507.283661 701.738159,507.470215 
	C701.738159,525.523804 701.738159,543.056885 701.738159,561.192810 
	C699.247498,560.443298 697.537476,559.952271 695.842346,559.414490 
	C688.639648,557.129150 681.362976,556.951599 674.490967,560.106140 
	C664.301941,564.783325 657.411987,575.151489 669.325012,585.868713 
	C675.094604,591.059265 688.654175,592.908630 696.113953,589.466248 
	C702.407776,586.561890 707.845276,582.919434 708.258484,575.273804 
	C708.729919,566.551331 708.742371,557.804077 708.971313,548.123108 
	C708.980591,537.692078 709.074036,527.260132 708.949463,516.830688 
	C708.910461,513.563416 708.284241,510.303192 707.074768,507.016205 
z"/>
<path fill="#891204" opacity="1.000000" stroke="none" 
	d="
M661.689087,670.677673 
	C669.270691,656.872986 676.790771,643.454895 683.994507,629.869019 
	C686.742798,624.685913 690.923645,626.039673 695.573730,626.318604 
	C699.319641,649.258301 703.055237,672.134827 706.785889,694.980713 
	C699.415833,697.386047 698.157227,696.644348 696.894165,689.324402 
	C696.111877,684.790833 695.335571,680.256348 694.448547,675.093445 
	C686.490845,675.093445 678.552673,675.010681 670.620972,675.200684 
	C669.655090,675.223816 668.428772,676.539368 667.829529,677.554749 
	C665.476074,681.542786 663.247559,685.610291 661.116882,689.723022 
	C657.579895,696.550171 656.725220,696.985229 648.111938,695.259583 
	C652.628906,687.074768 657.065247,679.036072 661.689087,670.677673 
M684.856873,646.427917 
	C681.084045,653.304260 677.311218,660.180542 673.055603,667.936768 
	C679.566956,667.936768 684.990051,668.064148 690.395142,667.808899 
	C691.276550,667.767334 692.901489,665.921509 692.788574,665.101379 
	C691.703064,657.213440 690.318420,649.366638 688.787170,640.102966 
	C687.011597,642.815979 686.049561,644.285950 684.856873,646.427917 
z"/>
<path fill="#891204" opacity="1.000000" stroke="none" 
	d="
M732.658936,654.706848 
	C736.739990,652.433105 740.582581,649.305969 744.957397,648.083984 
	C751.657898,646.212280 756.405212,649.368958 758.804810,655.756348 
	C764.267456,670.297363 752.681458,693.041382 737.552063,696.502991 
	C732.888428,697.570068 727.774292,696.668823 722.499939,696.668823 
	C721.263062,702.544189 720.164429,708.167603 718.880859,713.748535 
	C717.549377,719.537781 716.116394,720.376404 709.060425,719.399658 
	C709.717712,715.606750 710.264587,711.795715 711.049316,708.034424 
	C714.786621,690.120300 718.538574,672.208862 722.395874,654.320374 
	C723.676758,648.380249 724.944397,647.686157 731.969543,648.420288 
	C731.969543,649.969055 731.969543,651.575012 731.726685,653.686829 
	C731.356628,654.730347 731.229553,655.268005 730.837769,656.925171 
	C731.934570,655.589172 732.296753,655.148010 732.658936,654.706848 
M729.857544,669.448547 
	C728.521973,673.327576 726.865356,677.134644 725.973083,681.113159 
	C725.451416,683.439453 725.277405,687.455627 726.492188,688.204407 
	C728.635986,689.525635 732.170044,689.703003 734.756348,689.004639 
	C746.840698,685.741760 751.008728,672.587524 750.664795,663.257507 
	C750.565063,660.552185 748.423340,656.765198 746.161072,655.683228 
	C744.518494,654.897522 740.701355,657.258423 738.630371,659.093018 
	C735.441345,661.918091 732.917786,665.494446 729.857544,669.448547 
z"/>
<path fill="#891204" opacity="1.000000" stroke="none" 
	d="
M783.631348,655.731445 
	C788.060547,650.921143 792.706726,647.062195 800.075195,647.753235 
	C806.119751,648.320190 809.086243,651.748169 810.327454,656.876465 
	C814.047302,672.244690 805.075073,692.257507 789.177368,696.278748 
	C785.757324,697.143799 782.023254,697.050110 778.448486,696.936096 
	C775.252380,696.834106 773.149780,697.032776 772.744934,701.070251 
	C772.321289,705.294983 771.014099,709.435852 770.030029,713.598450 
	C768.576782,719.746277 767.083313,720.633301 760.155273,719.247925 
	C761.899109,710.593140 763.558472,701.914246 765.409241,693.276367 
	C768.171082,680.386780 771.106689,667.534546 773.890503,654.649597 
	C775.234070,648.430969 776.312622,647.631592 783.384949,648.479187 
	C783.248291,650.343994 783.109314,652.240906 782.737854,654.654907 
	C782.491577,655.589172 782.477722,656.006287 782.463928,656.423462 
	C782.853088,656.192810 783.242188,655.962158 783.631348,655.731445 
M800.973816,671.245667 
	C801.313049,669.134460 802.348511,666.834290 801.837952,664.953796 
	C800.940063,661.646667 799.096924,658.596252 797.649597,655.438354 
	C794.786072,656.772766 791.471313,657.573669 789.144104,659.542114 
	C782.343384,665.294678 778.420532,672.911499 776.995300,681.681274 
	C776.635193,683.897095 776.410706,687.593994 777.536621,688.275146 
	C779.600891,689.524109 782.850220,689.678711 785.369934,689.155457 
	C794.528870,687.253540 798.115784,679.962830 800.973816,671.245667 
z"/>
<path fill="#891204" opacity="1.000000" stroke="none" 
	d="
M515.347900,668.357056 
	C513.896851,677.018127 510.616638,685.042725 512.373108,693.745605 
	C512.517334,694.460083 509.085236,696.219910 507.109863,696.886780 
	C506.264221,697.172241 504.283264,696.171204 503.886963,695.279602 
	C503.055969,693.410095 502.933014,691.225830 502.710999,690.122864 
	C497.376648,692.477844 492.172394,695.925781 486.516541,697.003601 
	C477.955841,698.634766 473.480408,693.266785 474.337219,685.712219 
	C475.615265,674.443359 478.704834,663.381775 480.984863,652.223999 
	C482.108002,646.727783 486.256042,650.056335 489.673920,648.517517 
	C489.673920,650.779541 489.908142,652.218323 489.636536,653.554260 
	C487.630951,663.419250 485.386047,673.238464 483.581848,683.138611 
	C483.269928,684.850159 484.191345,687.443542 485.473602,688.576843 
	C486.467255,689.455200 489.316589,689.357361 490.648804,688.550537 
	C500.607086,682.519226 506.049988,673.389404 507.966217,662.028748 
	C508.350983,659.747437 508.674164,657.453735 509.131042,655.186951 
	C510.452576,648.630798 511.164978,648.219543 519.151917,649.807434 
	C517.942993,655.847168 516.730042,661.907166 515.347900,668.357056 
z"/>
<path fill="#891204" opacity="1.000000" stroke="none" 
	d="
M590.224487,691.719482 
	C581.547729,682.233154 585.588684,663.259827 595.070190,654.134644 
	C602.713501,646.778503 617.588135,644.975037 625.998657,652.876770 
	C624.863464,654.998230 623.662842,657.241943 622.258606,659.866028 
	C621.123718,659.192017 620.470947,658.815613 619.829163,658.421448 
	C609.716125,652.210876 603.713501,655.904907 598.270264,664.222412 
	C594.721863,669.644470 593.625793,676.073792 595.398132,681.867981 
	C597.784729,689.670349 603.255066,692.120667 612.439209,687.733643 
	C614.041443,686.968262 615.502136,685.906494 617.475159,684.710754 
	C618.764282,686.994934 619.863342,688.942444 620.909546,690.796265 
	C614.670837,698.130493 596.718018,700.391907 590.224487,691.719482 
z"/>
<path fill="#891204" opacity="1.000000" stroke="none" 
	d="
M540.666626,666.166260 
	C543.552673,668.714111 546.253784,670.914856 548.769287,673.310547 
	C553.482117,677.798889 553.468750,683.456238 551.380066,688.861511 
	C549.475708,693.789551 545.262268,696.665833 539.802429,696.950562 
	C536.225281,697.137085 532.550232,697.360291 529.053040,696.771179 
	C521.532837,695.504456 520.662476,693.081909 523.975525,687.704346 
	C529.518799,688.185486 534.514221,689.495544 539.204346,688.786438 
	C544.169983,688.035767 545.243652,683.088013 541.725037,679.358459 
	C538.778503,676.235229 535.210876,673.703613 532.203552,670.630859 
	C525.728943,664.015381 528.579895,651.595337 537.502441,649.206909 
	C542.422729,647.889771 547.888428,647.900330 553.026611,648.317688 
	C557.648560,648.693237 558.055664,651.123596 555.281189,657.630127 
	C552.509277,656.804199 549.675964,655.221924 546.916626,655.341675 
	C544.055054,655.465820 540.570557,656.588562 538.728333,658.556763 
	C537.765869,659.585083 539.746521,663.368164 540.666626,666.166260 
z"/>
<path fill="#891204" opacity="1.000000" stroke="none" 
	d="
M571.119690,689.183716 
	C570.052429,696.515381 568.825928,697.224792 561.128967,695.075378 
	C564.125549,680.783386 567.035645,666.447937 570.178406,652.163635 
	C571.261902,647.239197 575.351196,649.460083 579.647034,648.985596 
	C576.748901,662.603821 573.965210,675.684448 571.119690,689.183716 
z"/>
<path fill="#891204" opacity="1.000000" stroke="none" 
	d="
M612.926025,412.736603 
	C610.738708,407.675781 612.409668,403.167816 616.051636,401.032776 
	C618.945129,399.336456 623.735474,399.296417 627.095154,400.367371 
	C631.466187,401.760681 632.423950,406.226837 631.983643,410.724976 
	C631.590271,414.743896 629.157043,417.399048 625.569763,417.943665 
	C622.622009,418.391235 619.336914,417.556580 616.391968,416.662506 
	C615.047668,416.254395 614.162476,414.334503 612.926025,412.736603 
z"/>
<path fill="#891204" opacity="1.000000" stroke="none" 
	d="
M569.925171,562.684021 
	C577.508301,559.262085 583.060791,561.113831 585.178650,567.410706 
	C587.216553,573.469849 584.197998,578.862671 577.771545,580.594971 
	C573.546814,581.733765 570.247742,579.979736 567.989685,576.678955 
	C564.609436,571.737793 565.274719,567.614746 569.925171,562.684021 
z"/>
<path fill="#891204" opacity="1.000000" stroke="none" 
	d="
M575.888062,637.252808 
	C572.326477,633.720032 571.906860,629.936768 575.669983,627.286926 
	C577.416016,626.057495 581.649292,626.079712 583.096313,627.380188 
	C584.409485,628.560303 584.449341,632.928406 583.255371,634.635010 
	C582.031860,636.383850 578.629456,636.608215 575.888062,637.252808 
z"/>
<path fill="#891204" opacity="1.000000" stroke="none" 
	d="
M696.749207,402.988007 
	C690.375793,402.897949 688.441162,401.475067 689.510193,398.072052 
	C690.490723,394.950836 692.904663,394.972198 695.496277,394.974121 
	C698.084473,394.976074 700.607849,394.911011 701.458801,398.074066 
	C702.459961,401.795349 700.187561,402.734344 696.749207,402.988007 
z"/>
<path fill="#891204" opacity="1.000000" stroke="none" 
	d="
M503.597961,572.907959 
	C500.578979,571.350281 498.547394,568.421448 501.302002,566.761719 
	C503.878662,565.209229 507.960297,566.154358 511.379578,566.000244 
	C511.441925,567.894897 512.148682,571.095764 511.447113,571.441895 
	C509.253204,572.524231 506.527557,572.528931 503.597961,572.907959 
z"/>
<path fill="#891204" opacity="1.000000" stroke="none" 
	d="
M689.384521,393.875061 
	C686.639648,396.353882 684.214172,396.097260 682.404175,393.500671 
	C680.777771,391.167511 682.230530,383.741974 684.270447,383.739532 
	C686.149780,383.737244 688.895996,385.186554 689.683533,386.777191 
	C690.581421,388.590576 689.734131,391.268005 689.384521,393.875061 
z"/>
<path fill="#891204" opacity="1.000000" stroke="none" 
	d="
M513.229553,573.508362 
	C516.043457,571.673767 518.841125,571.626099 519.518494,574.667236 
	C520.196472,577.711243 521.771667,581.683105 517.770813,583.992981 
	C514.977844,585.605469 512.681580,584.307678 512.234436,581.440857 
	C511.850952,578.981934 512.651611,576.338257 513.229553,573.508362 
z"/>
<path fill="#891204" opacity="1.000000" stroke="none" 
	d="
M683.772217,414.132050 
	C683.020203,411.040955 682.148193,408.188416 682.280212,405.383087 
	C682.394714,402.948364 688.119263,401.787384 688.976074,404.036591 
	C689.957581,406.613098 689.918945,409.855438 689.333740,412.597260 
	C689.135498,413.526123 685.923157,413.811615 683.772217,414.132050 
z"/>
<path fill="#891204" opacity="1.000000" stroke="none" 
	d="
M525.956543,565.004028 
	C529.328125,564.751282 531.932922,565.282654 531.840088,568.903809 
	C531.741272,572.758362 528.825562,573.099182 525.804871,572.991821 
	C522.919434,572.889282 520.027588,572.942200 520.016479,568.758789 
	C520.005554,564.639160 522.853882,565.027832 525.956543,565.004028 
z"/>
<path fill="#891204" opacity="1.000000" stroke="none" 
	d="
M513.640625,564.457397 
	C512.886719,561.823853 511.847992,559.324768 512.262634,557.096008 
	C512.546631,555.569214 514.853455,554.418701 516.255981,553.099915 
	C517.497864,554.496033 519.638794,555.780945 519.827698,557.307312 
	C520.691956,564.292725 519.888184,565.067078 513.640625,564.457397 
z"/>
<path fill="#891204" opacity="1.000000" stroke="none" 
	d="
M674.432861,402.966675 
	C672.729065,401.371368 671.447021,399.791565 670.164917,398.211731 
	C671.975830,397.144287 673.710999,395.344208 675.612000,395.147705 
	C681.154480,394.574829 683.748352,397.070709 681.574829,400.706421 
	C680.650879,402.251862 677.172241,402.269989 674.432861,402.966675 
z"/>
<path fill="#000000" opacity="1.000000" stroke="none" 
	d="
M587.000000,485.000793 
	C586.999939,497.329529 586.582825,509.176971 587.107910,520.982483 
	C587.730713,534.986511 578.084778,541.691711 566.384888,542.695618 
	C560.760681,543.178162 554.556458,541.513367 549.209106,539.351257 
	C543.518738,537.050537 539.553467,532.358337 540.007812,525.382935 
	C540.452026,518.564026 544.825256,514.794678 550.433044,512.037781 
	C559.735046,507.464752 568.987122,508.707764 578.999695,513.172668 
	C578.999695,510.503815 578.999573,508.594452 578.999634,506.685089 
	C579.000122,489.358276 579.129211,472.029846 578.916443,454.705658 
	C578.858887,450.013092 579.873840,448.243042 585.141113,447.782837 
	C601.250610,446.375305 617.278931,444.048187 633.344482,442.126160 
	C642.366272,441.046844 651.408386,440.133759 660.423218,439.001770 
	C664.792419,438.453156 666.135803,440.023010 666.095032,444.481323 
	C665.885010,467.470764 665.999695,490.463165 665.999634,513.454529 
	C665.999634,525.406921 662.022095,531.087585 650.286499,534.204285 
	C641.825134,536.451477 633.392883,535.541748 626.037170,530.334534 
	C621.513855,527.132324 618.258301,522.561035 619.192810,516.803101 
	C620.226135,510.436249 624.909668,506.463623 630.635254,504.044495 
	C637.870178,500.987671 645.315979,500.756165 652.792725,503.389709 
	C654.477783,503.983215 656.210144,504.442413 658.505554,505.141602 
	C658.505554,489.267761 658.505554,473.944946 658.505554,458.100037 
	C634.726990,460.838287 611.192810,463.548370 587.000000,466.334320 
	C587.000000,472.603577 587.000000,478.552277 587.000000,485.000793 
z"/>
<path fill="#000000" opacity="1.000000" stroke="none" 
	d="
M497.725403,468.221436 
	C489.328094,460.129944 494.569763,448.251190 505.197784,444.138885 
	C511.978210,441.515289 518.987671,440.767761 525.990173,443.854187 
	C527.605469,444.566132 529.442932,444.773926 531.999817,445.421936 
	C531.999817,443.142639 531.999756,441.390991 531.999817,439.639343 
	C532.000610,422.819916 532.099182,405.999573 531.934265,389.181763 
	C531.892578,384.925018 532.836304,383.215240 537.662048,382.809998 
	C550.475281,381.734039 563.208435,379.724365 575.985718,378.188293 
	C580.042725,377.700531 584.138489,377.534485 588.612671,377.190765 
	C588.612671,380.765045 588.612671,383.990662 588.612671,387.651276 
	C572.263855,389.567657 556.073120,391.465546 539.331299,393.428009 
	C539.221069,395.363159 539.017883,397.294617 539.015320,399.226349 
	C538.990784,417.711029 538.755432,436.200104 539.085388,454.678925 
	C539.307373,467.111786 533.430542,471.411438 524.568420,474.477783 
	C514.879822,477.830139 505.619934,475.920135 497.725403,468.221436 
z"/>
<path fill="#000000" opacity="1.000000" stroke="none" 
	d="
M708.954285,549.067566 
	C708.742371,557.804077 708.729919,566.551331 708.258484,575.273804 
	C707.845276,582.919434 702.407776,586.561890 696.113953,589.466248 
	C688.654175,592.908630 675.094604,591.059265 669.325012,585.868713 
	C657.411987,575.151489 664.301941,564.783325 674.490967,560.106140 
	C681.362976,556.951599 688.639648,557.129150 695.842346,559.414490 
	C697.537476,559.952271 699.247498,560.443298 701.738159,561.192810 
	C701.738159,543.056885 701.738159,525.523804 701.738159,507.470215 
	C703.931152,507.283661 705.502930,507.149933 707.526733,507.491943 
	C707.986023,519.947754 707.955322,531.928101 708.042664,543.907593 
	C708.055298,545.629700 708.636292,547.347656 708.954285,549.067566 
z"/>
<path fill="#AA0000" opacity="1.000000" stroke="none" 
	d="
M708.962769,548.595337 
	C708.636292,547.347656 708.055298,545.629700 708.042664,543.907593 
	C707.955322,531.928101 707.986023,519.947754 707.952759,507.503693 
	C708.284241,510.303192 708.910461,513.563416 708.949463,516.830688 
	C709.074036,527.260132 708.980591,537.692078 708.962769,548.595337 
z"/>
<path fill="#000000" opacity="1.000000" stroke="none" 
	d="
M684.972168,646.091919 
	C686.049561,644.285950 687.011597,642.815979 688.787170,640.102966 
	C690.318420,649.366638 691.703064,657.213440 692.788574,665.101379 
	C692.901489,665.921509 691.276550,667.767334 690.395142,667.808899 
	C684.990051,668.064148 679.566956,667.936768 673.055603,667.936768 
	C677.311218,660.180542 681.084045,653.304260 684.972168,646.091919 
z"/>
<path fill="#000000" opacity="1.000000" stroke="none" 
	d="
M729.984741,669.100342 
	C732.917786,665.494446 735.441345,661.918091 738.630371,659.093018 
	C740.701355,657.258423 744.518494,654.897522 746.161072,655.683228 
	C748.423340,656.765198 750.565063,660.552185 750.664795,663.257507 
	C751.008728,672.587524 746.840698,685.741760 734.756348,689.004639 
	C732.170044,689.703003 728.635986,689.525635 726.492188,688.204407 
	C725.277405,687.455627 725.451416,683.439453 725.973083,681.113159 
	C726.865356,677.134644 728.521973,673.327576 729.984741,669.100342 
z"/>
<path fill="#000000" opacity="1.000000" stroke="none" 
	d="
M732.472412,654.513367 
	C732.296753,655.148010 731.934570,655.589172 730.837769,656.925171 
	C731.229553,655.268005 731.356628,654.730347 731.698242,654.062988 
	C732.037109,654.062073 732.161499,654.190979 732.472412,654.513367 
z"/>
<path fill="#000000" opacity="1.000000" stroke="none" 
	d="
M800.917236,671.652466 
	C798.115784,679.962830 794.528870,687.253540 785.369934,689.155457 
	C782.850220,689.678711 779.600891,689.524109 777.536621,688.275146 
	C776.410706,687.593994 776.635193,683.897095 776.995300,681.681274 
	C778.420532,672.911499 782.343384,665.294678 789.144104,659.542114 
	C791.471313,657.573669 794.786072,656.772766 797.649597,655.438354 
	C799.096924,658.596252 800.940063,661.646667 801.837952,664.953796 
	C802.348511,666.834290 801.313049,669.134460 800.917236,671.652466 
z"/>
<path fill="#000000" opacity="1.000000" stroke="none" 
	d="
M783.451904,655.531494 
	C783.242188,655.962158 782.853088,656.192810 782.463928,656.423462 
	C782.477722,656.006287 782.491577,655.589172 782.708984,655.052124 
	C783.032593,655.065369 783.152527,655.198425 783.451904,655.531494 
z"/>
</svg>
